<svg width="15" height="10" viewBox="0 0 15 10" fill="none" xmlns="http://www.w3.org/2000/svg">
<path fill-rule="evenodd" clip-rule="evenodd" d="M0.783334 0H14.2167C14.6493 0 15 0.35071 15 0.783334V0.883333C15 1.31596 14.6493 1.66667 14.2167 1.66667H0.783334C0.35071 1.66667 0 1.31596 0 0.883333V0.783334C0 0.35071 0.35071 0 0.783334 0ZM1.66667 5.00001C1.66667 5.46024 1.29357 5.83334 0.833333 5.83334C0.373096 5.83334 0 5.46024 0 5.00001C0 4.53977 0.373096 4.16667 0.833333 4.16667C1.29357 4.16667 1.66667 4.53977 1.66667 5.00001ZM4.11665 4.16667H14.2166C14.6493 4.16667 15 4.51738 15 4.95V5.05C15 5.48263 14.6493 5.83334 14.2166 5.83334H4.11665C3.68402 5.83334 3.33331 5.48263 3.33331 5.05V4.95C3.33331 4.51738 3.68402 4.16667 4.11665 4.16667ZM14.2167 8.33333H0.783334C0.35071 8.33333 0 8.68404 0 9.11666V9.21666C0 9.64928 0.35071 9.99999 0.783334 9.99999H14.2167C14.6493 9.99999 15 9.64928 15 9.21666V9.11666C15 8.68404 14.6493 8.33333 14.2167 8.33333Z" fill="black"/>
</svg>
