<svg width="20" height="15" viewBox="0 0 20 15" fill="none" xmlns="http://www.w3.org/2000/svg">
<path fill-rule="evenodd" clip-rule="evenodd" d="M14.4184 0.0150664C14.3674 -0.000618749 14.3135 -0.00411695 14.2609 0.00485338C14.2083 0.0138237 14.1585 0.035012 14.1156 0.066714C14.0727 0.0984159 14.0378 0.139747 14.0138 0.187381C13.9898 0.235015 13.9773 0.287624 13.9773 0.340975V7.09437C13.605 6.73716 13.1196 6.52108 12.6051 6.48339C12.0905 6.4457 11.5789 6.58876 11.1585 6.88791C10.7381 7.18706 10.4352 7.62353 10.3022 8.12205C10.1692 8.62058 10.2143 9.1499 10.4297 9.61872C10.6452 10.0875 11.0175 10.4665 11.4825 10.6902C11.9474 10.9139 12.4759 10.9683 12.9767 10.8441C13.4775 10.7199 13.9192 10.4248 14.2257 10.0097C14.5322 9.59469 14.6843 9.08568 14.6557 8.57051C14.6579 8.55469 14.6591 8.53875 14.6591 8.52278V3.52983L18.6498 4.7571C18.7007 4.77277 18.7546 4.77628 18.8071 4.76735C18.8597 4.75841 18.9094 4.73728 18.9523 4.70566C18.9952 4.67403 19.0301 4.63279 19.0541 4.58525C19.0782 4.5377 19.0908 4.48517 19.0909 4.43188V2.71165C19.091 2.34704 18.9741 1.99202 18.7575 1.69872C18.5409 1.40542 18.236 1.1893 17.8875 1.08211L14.4184 0.0150664ZM4.77272 5.11365C4.77272 3.79775 3.70227 2.72729 2.38636 2.72729C1.07045 2.72729 0 3.79775 0 5.11365C0 6.42956 1.07045 7.50001 2.38636 7.50001C2.77044 7.49735 3.14803 7.40067 3.48613 7.21842L5.09317 8.94206L3.51272 10.5225C3.16783 10.3315 2.78058 10.23 2.38636 10.2273C1.07045 10.2273 0 11.2977 0 12.6136C0 13.9295 1.07045 15 2.38636 15C3.70227 15 4.77272 13.9295 4.77272 12.6136C4.77272 12.2039 4.65954 11.8241 4.47681 11.4873L6.02385 9.94092L9.54544 13.7189C9.92895 14.1025 10.4491 14.3181 10.9916 14.3182H12.9545L4.32954 6.48956C4.60636 6.09956 4.77272 5.62706 4.77272 5.11365ZM2.38636 6.13638C1.8225 6.13638 1.36363 5.67752 1.36363 5.11365C1.36363 4.54979 1.8225 4.09093 2.38636 4.09093C2.95022 4.09093 3.40909 4.54979 3.40909 5.11365C3.40909 5.67752 2.95022 6.13638 2.38636 6.13638ZM2.38636 13.6364C1.8225 13.6364 1.36363 13.1775 1.36363 12.6136C1.36363 12.0498 1.8225 11.5909 2.38636 11.5909C2.95022 11.5909 3.40909 12.0498 3.40909 12.6136C3.40909 13.1775 2.95022 13.6364 2.38636 13.6364ZM7.01791 7.01793L9.5454 4.00839C9.92891 3.62477 10.4491 3.40919 10.9915 3.40907H12.9545L7.98199 7.98202L7.01791 7.01793Z" fill="white"/>
</svg>
