<svg width="18" height="19" viewBox="0 0 18 19" fill="none" xmlns="http://www.w3.org/2000/svg">
<path d="M3.79 4.29294H13.79V6.08294C13.79 6.53294 14.33 6.75294 14.64 6.43294L17.43 3.64294C17.63 3.44294 17.63 3.13294 17.43 2.93294L14.64 0.142937C14.5695 0.0738342 14.4801 0.0271454 14.3831 0.0087542C14.2862 -0.00963695 14.1859 0.00109269 14.095 0.0395913C14.0041 0.0780898 13.9266 0.142634 13.8723 0.22509C13.8181 0.307546 13.7894 0.404223 13.79 0.502937V2.29294H2.79C2.24 2.29294 1.79 2.74294 1.79 3.29294V7.29294C1.79 7.84294 2.24 8.29294 2.79 8.29294C3.34 8.29294 3.79 7.84294 3.79 7.29294V4.29294ZM13.79 14.2929H3.79V12.5029C3.79 12.0529 3.25 11.8329 2.94 12.1529L0.15 14.9429C-0.05 15.1429 -0.05 15.4529 0.15 15.6529L2.94 18.4429C3.0105 18.512 3.09987 18.5587 3.19686 18.5771C3.29384 18.5955 3.39411 18.5848 3.48501 18.5463C3.57591 18.5078 3.65337 18.4432 3.70765 18.3608C3.76193 18.2783 3.79058 18.1817 3.79 18.0829V16.2929H14.79C15.34 16.2929 15.79 15.8429 15.79 15.2929V11.2929C15.79 10.7429 15.34 10.2929 14.79 10.2929C14.24 10.2929 13.79 10.7429 13.79 11.2929V14.2929ZM9.79 11.5429V7.10294C9.79 6.65294 9.43 6.29294 8.98 6.29294C8.8543 6.29187 8.73041 6.32285 8.62 6.38294L7.13 7.12294C7.02748 7.17354 6.94125 7.25193 6.88113 7.34918C6.82101 7.44643 6.78944 7.55861 6.79 7.67294C6.79 8.01294 7.07 8.29294 7.41 8.29294H8.29V11.5429C8.29 11.9529 8.63 12.2929 9.04 12.2929C9.45 12.2929 9.79 11.9529 9.79 11.5429Z" fill="black"/>
</svg>
